<?xml version="1.0"?>
<svg xmlns:rdf="http://www.w3.org/1999/02/22-rdf-syntax-ns#" xmlns="http://www.w3.org/2000/svg" xmlns:cc="http://creativecommons.org/ns#" xmlns:xlink="http://www.w3.org/1999/xlink" xmlns:dc="http://purl.org/dc/elements/1.1/" xmlns:svg="http://www.w3.org/2000/svg" id="svg3484" viewBox="0 0 365 267" version="1.1">
  <defs id="defs3486">
    <filter id="filter4647" color-interpolation-filters="sRGB">
      <feGaussianBlur id="feGaussianBlur4649" stdDeviation="13.220173"/>
    </filter>
    <linearGradient id="linearGradient3806">
      <stop id="stop3808" stop-color="#efefef" offset="0"/>
      <stop id="stop3810" stop-color="#b1b5b8" offset="1"/>
    </linearGradient>
    <linearGradient id="linearGradient3860">
      <stop id="stop3862" stop-color="#c0c0c0" offset="0"/>
      <stop id="stop3864" stop-color="#949693" offset="1"/>
    </linearGradient>
    <filter id="filter4546" color-interpolation-filters="sRGB">
      <feGaussianBlur id="feGaussianBlur4548" stdDeviation="0.16477244"/>
    </filter>
    <filter id="filter4573" color-interpolation-filters="sRGB">
      <feGaussianBlur id="feGaussianBlur4575" stdDeviation="0.34537547"/>
    </filter>
    <filter id="filter4623" width="1.2413" y="-.066609" x="-.12067" height="1.1332" color-interpolation-filters="sRGB">
      <feGaussianBlur id="feGaussianBlur4625" stdDeviation="0.74390025"/>
    </filter>
    <filter id="filter4753" width="1.4213" y="-.4053" x="-.21063" height="1.8106" color-interpolation-filters="sRGB">
      <feGaussianBlur id="feGaussianBlur4755" stdDeviation="4.3431523"/>
    </filter>
    <filter id="filter4763" color-interpolation-filters="sRGB">
      <feGaussianBlur id="feGaussianBlur4765" stdDeviation="2.498593"/>
    </filter>
    <filter id="filter4793" width="1.0411" y="-.144" x="-.020571" height="1.288" color-interpolation-filters="sRGB">
      <feGaussianBlur id="feGaussianBlur4795" stdDeviation="3.4001777"/>
    </filter>
    <filter id="filter4811" width="1.0258" y="-.17631" x="-.012876" height="1.3526" color-interpolation-filters="sRGB">
      <feGaussianBlur id="feGaussianBlur4813" stdDeviation="2.16478"/>
    </filter>
    <linearGradient id="linearGradient3771" y2="229.4" gradientUnits="userSpaceOnUse" x2="870.29" gradientTransform="translate(815.23 1167.7)" y1="179.73" x1="453.15">
      <stop id="stop3785" stop-color="#818181" offset="0"/>
      <stop id="stop3828" stop-color="#c0c0c0" offset=".04"/>
      <stop id="stop3822" stop-color="#ccc" offset=".06"/>
      <stop id="stop3824" stop-color="#989898" offset=".2"/>
      <stop id="stop3826" stop-color="#646464" offset=".875"/>
      <stop id="stop3787" stop-color="#313131" offset="1"/>
    </linearGradient>
    <linearGradient id="linearGradient3773" y2="200.56" gradientUnits="userSpaceOnUse" x2="461.17" gradientTransform="translate(815.23 1167.7)" y1="242.74" x1="856.18">
      <stop id="stop3777" stop-color="#3f3b3c" offset="0"/>
      <stop id="stop3779" stop-color="#6f6d6d" offset="1"/>
    </linearGradient>
    <linearGradient id="linearGradient3776" y2="229.62" gradientUnits="userSpaceOnUse" x2="1605.6" gradientTransform="translate(87.907 1147.1)" y1="221.18" x1="1188.5">
      <stop id="stop3838" stop-color="#393939" offset="0"/>
      <stop id="stop3840" stop-color="#050f00" offset="1"/>
    </linearGradient>
    <radialGradient id="radialGradient3778" gradientUnits="userSpaceOnUse" cy="357.41" cx="1195.5" gradientTransform="matrix(2.9479 .44731 -.25254 1.6643 -2150.5 331.92)" r="191.67">
      <stop id="stop3816" stop-color="#4a0" offset="0"/>
      <stop id="stop3818" stop-color="#250" offset="1"/>
    </radialGradient>
    <linearGradient id="linearGradient3780" y2="431.14" xlink:href="#linearGradient3806" gradientUnits="userSpaceOnUse" x2="796.68" gradientTransform="translate(815.23 1167.7)" y1="361.79" x1="343.04"/>
    <linearGradient id="linearGradient3782" y2="377.72" xlink:href="#linearGradient3806" gradientUnits="userSpaceOnUse" x2="836.04" gradientTransform="translate(815.23 1167.7)" y1="324.76" x1="417.55"/>
    <linearGradient id="linearGradient3784" y2="380.09" xlink:href="#linearGradient3860" gradientUnits="userSpaceOnUse" x2="565.16" gradientTransform="translate(806.79 1205.2)" y1="380.09" x1="418.36"/>
    <linearGradient id="linearGradient3786" y2="449.41" xlink:href="#linearGradient3860" gradientUnits="userSpaceOnUse" x2="1196.1" gradientTransform="translate(87.481 1145.9)" y1="449.41" x1="1129.6"/>
    <linearGradient id="linearGradient3788" y2="458.8" xlink:href="#linearGradient3860" gradientUnits="userSpaceOnUse" x2="1253.9" gradientTransform="translate(87.907 1146)" y1="458.8" x1="1187.5"/>
    <linearGradient id="linearGradient3790" y2="504.2" gradientUnits="userSpaceOnUse" x2="1452.6" gradientTransform="translate(87.907 1147.1)" y1="431.12" x1="997.08">
      <stop id="stop3803" stop-color="#e2e7eb" offset="0"/>
      <stop id="stop3805" stop-color="#bcc0c3" offset="1"/>
    </linearGradient>
    <linearGradient id="linearGradient3792" y2="335.43" spreadMethod="repeat" gradientUnits="userSpaceOnUse" x2="1353.3" gradientTransform="translate(87.907 1147.1)" y1="114.99" x1="1386.1">
      <stop id="stop6361" stop-color="#f4eed7" stop-opacity=".50754" offset="0"/>
      <stop id="stop6367" stop-color="#f4eed7" stop-opacity="0" offset=".5"/>
      <stop id="stop6363" stop-color="#f4eed7" stop-opacity=".52261" offset="1"/>
    </linearGradient>
    <linearGradient id="linearGradient3794" y2="861.83" gradientUnits="userSpaceOnUse" x2="1512.1" gradientTransform="translate(0,492)" y1="695.91" x1="1481.6">
      <stop id="stop4084" stop-color="#fff" offset="0"/>
      <stop id="stop4086" stop-color="#fff" stop-opacity="0" offset="1"/>
    </linearGradient>
    <linearGradient id="linearGradient3796" y2="1063.3" gradientUnits="userSpaceOnUse" x2="1712.2" gradientTransform="translate(0,492)" y1="1013.4" x1="1345">
      <stop id="stop4779" stop-color="#fff" offset="0"/>
      <stop id="stop4781" stop-color="#fff" stop-opacity="0" offset="1"/>
    </linearGradient>
    <linearGradient id="linearGradient3798" y2="761.08" gradientUnits="userSpaceOnUse" x2="1753.7" gradientTransform="translate(0,492)" y1="731.61" x1="1303.4">
      <stop id="stop4801" stop-color="#fff" offset="0"/>
      <stop id="stop4803" stop-color="#fff" stop-opacity="0" offset="1"/>
    </linearGradient>
  </defs>
  <g id="layer1" transform="translate(0 -785.36)">
    <g id="g4919" transform="matrix(.53295 0 0 .53295 -658.88 -392.89)">
      <g id="g3731" transform="translate(170.88 1014.7)">
        <path id="path4815" filter="url(#filter4647)" d="m1307.4 1228.4-4.6875 5.1562-44.5 253.53c568.24 96.003 14.251-59.993-11.25 10.75-2.9392 8.965-0.9375 14.062-0.9375 14.062l0.6563 0.094c-0.4595 0.1964-3.1788 1.355-8.3126 3.5625-5.5389 2.3818-13.183 5.6898-21.594 9.3438-8.4109 3.6539-17.572 7.6525-26.188 11.469-8.6157 3.8162-16.69 7.4437-22.844 10.312-24.613 11.475-67.844 34.312-67.844 34.312s1.8926 0.2701 1.9687 0.2813c-1.0452 1.1416-2.2318 2.5878-2.8124 3.7187-1.1049 2.1515-1.8751 7.0625-1.875 7.0625l53.062 8.6875 14.688 5.7813 347.19 56.5 16.063 0.4687 0.6562-0.875 7 1.125-0.3438 0.7187s3.5435 1.9125 15.281-3.4374c3.5061-1.5981 15.093-9.2504 29.5-19.125 1.0967 0.9821 2.7897 1.4535 5.3437 0.031 5.838-3.2508 54.406-39.688 54.406-39.688l0.5313-2.625c12.428-8.8258 20.628-14.67 21.875-15.562 1.6579 1.7537 5.2443 1.4252 7.7187 1.3125 0.375-0.017 0.7498 0 1.0625 0 7.0816 0 11.668-10.282 11.469-22.969-0.189-12.007-3.3285-16.484-7.8126-20.063l-0.625 0.7813 0.5626-0.75-2.7188-0.375c-0.3739-0.1702-0.772-0.2942-1.1562-0.4063l2.4687 0.3126 45-288.69zm-78.344 371.19c-0.1825 0.1704-0.3148 0.337-0.4688 0.5l-0.2188-0.031z"/>
        <path id="path4817" d="m1297.4 1219.7-4.6875 5.1563-44.5 253.53c568.24 96.003 14.251-59.993-11.25 10.75-2.9392 8.9651-0.9375 14.062-0.9375 14.063l0.6563 0.094c-0.4595 0.1964-3.1788 1.355-8.3126 3.5625-5.5389 2.3818-13.183 5.6898-21.594 9.3438-8.4109 3.6539-17.572 7.6525-26.188 11.469-8.6157 3.8162-16.69 7.4437-22.844 10.312-24.613 11.475-67.844 34.312-67.844 34.312s1.8926 0.2701 1.9687 0.2813c-1.0452 1.1416-2.2318 2.5878-2.8124 3.7187-1.1049 2.1515-1.8751 7.0625-1.875 7.0625l53.062 8.6875 14.688 5.7813 347.19 56.5 16.063 0.4687 0.6562-0.875 7 1.125-0.3438 0.7187s3.5435 1.9125 15.281-3.4374c3.5061-1.5981 15.093-9.2504 29.5-19.125 1.0967 0.9821 2.7897 1.4535 5.3437 0.031 5.838-3.2508 54.406-39.688 54.406-39.688l0.5313-2.625c12.428-8.8258 20.628-14.67 21.875-15.562 1.6579 1.7537 5.2443 1.4252 7.7187 1.3125 0.375-0.017 0.7498 0 1.0625 0 7.0816 0 11.668-10.282 11.469-22.969-0.189-12.007-3.3285-16.484-7.8126-20.063l-0.625 0.7813 0.5626-0.75-2.7188-0.375c-0.3739-0.1702-0.772-0.2942-1.1562-0.4063l2.4687 0.3126 45-288.69zm-78.344 371.19c-0.1825 0.1704-0.3148 0.337-0.4688 0.5l-0.2188-0.031z" fill="#333"/>
        <path id="path4819" d="m1297.4 1219.7-4.6875 5.1562-44.5 253.53 415.19 54.812 45-288.69-411-24.812zm-0.4688 21.062 396 28.594-38.906 243.22-395.5-50.125 38.406-221.69z" fill="url(#linearGradient3771)"/>
        <path id="path4821" d="m1297 1240.8-38.406 221.69 395.5 50.125 38.906-243.22-396-28.594zm20.625 9.375 348.66 25.312-37.469 228.69-345.88-41.688 34.688-212.31z" stroke="url(#linearGradient3776)" stroke-width="1px" fill="url(#linearGradient3773)"/>
        <path id="path4823" d="m1317.6 1250.2-34.679 212.29 345.85 41.708 37.491-228.69z" fill="url(#radialGradient3778)"/>
        <path id="path4825" opacity=".95" d="m1237.4 1503s-3.4363 1.4683-8.9754 3.8501c-5.539 2.3818-13.181 5.6771-21.592 9.331-8.4109 3.6539-17.591 7.6664-26.207 11.483-8.6157 3.8162-16.667 7.4362-22.82 10.305-24.613 11.475-67.844 34.312-67.844 34.312s64.808 9.4792 128.38 19.125l7.1562-4.875 115.97 19.531-5.3438 3.8437c84.473 13.657 197.22 32.281 197.22 32.281l117.31-82.85s-33.583-5.8017-79.493-12.573c-51.543-7.602-116.19-15.85-152.77-20.831-36.582-4.981-180.98-22.934-180.98-22.934z" fill="url(#linearGradient3780)"/>
        <path id="path4827" d="m1248.5 1478.5s-8.5245 1.7108-11.464 10.676c-2.9392 8.965-0.9375 14.062-0.9375 14.062l0.6562 0.094c0.036-0.016 0.6563-0.2813 0.6563-0.2813s144.39 17.956 180.97 22.938c36.582 4.981 101.24 13.21 152.78 20.812 45.91 6.7712 79.5 12.594 79.5 12.594l-1.1875 0.8437 1.3437 0.1875s-1.093-9.766 2.3438-17.812c3.4368-8.0465 10.312-7.0312 10.312-7.0312l1.4062-1.875z" fill="url(#linearGradient3782)"/>
        <path id="path4829" d="m1225.7 1584.6 115.98 19.22 29.824-19.882-113.99-17.232z" stroke-opacity=".25" stroke="#393939" stroke-width="1px" fill="url(#linearGradient3784)"/>
        <path id="path4831" d="m1225.5 1586.6-0.062 0.062-6.3125 4.2812c-0.5179 0.4836-0.9527 0.9446-1.125 1.3438-0.8996 2.0844 0.1875 3.375 0.1875 3.375l58.094 8.6563v-0.062l-0.3126-0.062s-0.3275-1.2361 0.4376-2.6251v-0.062l0.062-0.062c0.031-0.053 0.059-0.1032 0.094-0.1562 0.98-1.4979 5.9375-5.0938 5.9375-5.0938l-57-9.5937z" fill="url(#linearGradient3786)"/>
        <path id="path4833" d="m1282.5 1596.2s-4.9575 3.5959-5.9375 5.0938-0.5938 2.9063-0.5938 2.9063l59.063 8.875s-0.3279-1.6319 0.9062-2.9063c0.05-0.051 0.1277-0.1316 0.1875-0.1875h0.031l0.1874-0.1562c0.9324-0.8108 2.2889-1.7575 3.5313-2.5625l1.5937-1.125-58.969-9.9376z" fill="url(#linearGradient3788)"/>
        <path id="path4835" d="m1518.2 1654.8-16.06-0.4636-347.19-56.521-17.044-6.691 381.8 61.674-1.5094 2.0008"/>
        <path id="path4837" d="m1093.7 1570.8s-3.4891 3.3846-4.5938 5.5362c-1.1048 2.1515-1.8535 7.0791-1.8535 7.0791l439.34 71.796 6.4376-13.156-197.22-31.781c-1.0912 1.2523-0.7812 2.7813-0.7812 2.7813l-58.75-8.8125v0.062l-58.094-8.6563s-1.0871-1.2906-0.1875-3.375c0.1129-0.2617 0.3683-0.5401 0.6563-0.8438zm182.77 30.63-0.062 0.062v0.062c0.022-0.04 0.038-0.085 0.062-0.125z" fill="url(#linearGradient3790)"/>
        <path id="path4839" d="m1631.9 1584.5-1.889 9.0671s-48.565 36.418-54.403 39.669c-5.8379 3.2509-7.1782-3.4002-7.1782-3.4002z" fill="#202020"/>
        <path id="path4841" d="m1649.6 1558.5-0.75 0.5313c0.15 0.026 0.6275 0.1093 0.7188 0.125l0.031-0.6563zm-0.094 1.6563-116.16 82.031s-0.1946-0.031-0.375-0.062l-6.375 13.031-0.6874-0.125-0.3438 0.7188s3.5434 1.9125 15.281-3.4375c11.738-5.3501 113.09-77.977 113.09-77.977l0.1744-17.057z" fill="#b3b7ba" fill-opacity=".95294"/>
        <path id="path4843" d="m975.11 109.16c0 6.2935-4.7374 11.395-10.581 11.395-5.8439 0-10.581-5.1019-10.581-11.395 0-6.2935 4.7374-11.395 10.581-11.395 5.8439 0 10.581 5.1019 10.581 11.395z" fill="#48484a" transform="matrix(.37802 0 0 .35102 937.24 1191.3)"/>
        <path id="path4845" d="m975.11 109.16c0 6.2935-4.7374 11.395-10.581 11.395-5.8439 0-10.581-5.1019-10.581-11.395 0-6.2935 4.7374-11.395 10.581-11.395 5.8439 0 10.581 5.1019 10.581 11.395z" fill="#48484a" transform="matrix(.37802 0 0 .35102 893.24 1433.3)"/>
        <path id="path4847" d="m975.11 109.16c0 6.2935-4.7374 11.395-10.581 11.395-5.8439 0-10.581-5.1019-10.581-11.395 0-6.2935 4.7374-11.395 10.581-11.395 5.8439 0 10.581 5.1019 10.581 11.395z" fill="#48484a" transform="matrix(.37802 0 0 .35102 1291.2 1483.3)"/>
        <path id="path4849" d="m975.11 109.16c0 6.2935-4.7374 11.395-10.581 11.395-5.8439 0-10.581-5.1019-10.581-11.395 0-6.2935 4.7374-11.395 10.581-11.395 5.8439 0 10.581 5.1019 10.581 11.395z" fill="#48484a" transform="matrix(.37802 0 0 .35102 1335.2 1213.3)"/>
        <path id="path4851" opacity=".5" d="m1317.6 1250.2-34.679 212.29 345.85 41.708 37.491-228.69z" fill="url(#linearGradient3792)"/>
        <path id="path4853" d="m1476.7 1232.2-3.4534 15.54 17.842 1.1511 3.4883-15.674z" fill="#545456"/>
        <rect id="rect4855" transform="matrix(.99940 .034596 -.038901 .99924 0 0)" ry="2.1711" height="4.3422" width="14.388" y="1182.6" x="1436.5" fill="#48484a"/>
        <rect id="rect4857" ry="2.1711" transform="matrix(.99940 .034596 -.038901 .99924 0 0)" height="4.3422" width="14.388" y="1186.2" x="1620.7" fill="#48484a"/>
        <path id="path4859" d="m1270.8 1481.4c-0.6221 0.7883-1.4475 1.871-2.3126 3.125-1.7854 2.5885-3.7484 5.8719-4.4687 8.8437-1.1412 4.7088-0.9731 10.695-0.875 12.844 0.3796 0.047 1.0097 0.1381 1.4063 0.1875-0.086-1.6961-0.3217-8.0386 0.8124-12.719 0.6355-2.6216 2.5396-5.8502 4.2813-8.3751 1.2753-1.8485 2.2388-3.0326 2.7813-3.6875l-1.625-0.2187zm19.531 2.5937c-0.5508 0.7146-1.1656 1.5483-1.8438 2.5313-1.7854 2.5885-3.7484 5.8719-4.4687 8.8437-1.2713 5.2457-0.9494 12.064-0.875 13.344 0.5967 0.075 0.8288 0.1114 1.4375 0.1875-0.037-0.6092-0.4748-8.0356 0.7812-13.219 0.6355-2.6215 2.5396-5.8502 4.2813-8.3751 0.8599-1.2463 1.6731-2.3252 2.2813-3.0937l-1.5938-0.2188zm313.56 41.563c-0.5348 0.6301-1.484 1.7858-2.75 3.5937-1.7206 2.457-3.6247 5.5959-4.3437 8.5625-1.0312 4.2543-1.141 9.9751-1.125 12.719 0.4671 0.072 0.9434 0.1472 1.4062 0.2187-0.01-2.6322 0.1025-8.5039 1.0938-12.594 0.6365-2.6269 2.4517-5.736 4.125-8.125 1.673-2.3894 3.1874-4.0626 3.1874-4.0626l-0.125-0.094-1.4687-0.2187zm19.531 2.5937c-0.6329 0.797-1.4892 1.9206-2.4063 3.25-1.7857 2.5885-3.7484 5.8721-4.4687 8.8437-1.2797 5.2794-0.9465 12.163-0.875 13.375 0.4793 0.077 0.9665 0.1434 1.4374 0.2188-0.028-0.4422-0.4901-8.004 0.7813-13.25 0.6354-2.6214 2.5395-5.8502 4.2813-8.375 1.3673-1.9821 2.3956-3.262 2.875-3.8438l-1.625-0.2187z"/>
        <path id="path4861" opacity=".5" d="m1317.6 1250.2-10.469 64.219 158.94 18.539 187.21 21.836 13-79.281z" fill="url(#linearGradient3794)"/>
        <path id="path4863" d="m1659 1532.6c-0.4429 0-0.8815 0.046-1.3126 0.125l4.4688 0.5937c-1.0131-0.4612-2.063-0.7187-3.1562-0.7187zm5.1874 2-0.7187 0.9687s-6.8757-1.0152-10.312 7.0313c-2.9185 6.8329-2.5776 14.533-2.4062 16.812l3.3437-2.0937-0.1563 17.062s-1.3392 0.9296-1.4374 1c1.658 1.7537 5.2555 1.4408 7.7299 1.3281 0.375-0.017 0.7242-0.03 1.0369-0.03 7.0816 0 11.69-10.282 11.49-22.969-0.1889-12.007-3.3299-16.476-7.8139-20.056z" fill="#ccc"/>
        <path id="path4865" d="m1149.6 1549.4 416.74 61.977 72.663-48.086-399.83-58.329z" fill="#eaeaeb"/>
        <path id="path4867" d="m1545.7 1640.8-0.5343 5.0567 27.783-18.7-0.1564-3.8317z" fill="#333"/>
        <path id="path4869" d="m1579.9 1623.3 8.6893-6.2337 0.3778-6.4225-9.4449 6.4225z" fill="#333"/>
        <path id="path4871" d="m1616.9 1589.7 10.59-7.4247-0.9345 11.72-9.2568 7.5005z" fill="#214478"/>
        <path id="path4873" d="m1595.4 1616.9-1.1334-6.8003 18.134-12.845v8.6894z" fill="#1c241f"/>
        <path id="path4875" filter="url(#filter4546)" d="m1457.1 1626.7a1.1001 1.1001 0 0 0 -0.1562 0.031 1.1001 1.1001 0 0 0 -0.8126 0.6562l-4.5312 10.125a1.1001 1.1001 0 0 0 -0.4688 0.9062v0.375l2.0938 0.4376 4.9375-10.938a1.1001 1.1001 0 0 0 -1.0625 -1.5937zm8.9375 1.625a1.1001 1.1001 0 0 0 -0.2187 0.031 1.1001 1.1001 0 0 0 -0.8126 0.6562l-4.5312 10.125a1.1001 1.1001 0 0 0 -0.4688 0.9062v0.375l2.0938 0.4376 4.9062-10.938a1.1001 1.1001 0 0 0 -0.9687 -1.5937zm9.3125 1.5313a1.1001 1.1001 0 0 0 -0.9062 0.6562l-4.5313 10.125a1.1001 1.1001 0 0 0 -0.4687 0.9062v0.375l2.0937 0.4688 4.9375-10.969a1.1001 1.1001 0 0 0 -1.125 -1.5624zm8.6875 1.5a1.1001 1.1001 0 0 0 -0.9063 0.6874l-4.5312 10.094a1.1001 1.1001 0 0 0 -0.4688 0.9375v0.375l2.125 0.4375 4.9063-10.969a1.1001 1.1001 0 0 0 -1 -1.5624 1.1001 1.1001 0 0 0 -0.125 0zm9.875 1.5a1.1001 1.1001 0 0 0 -0.1563 0.031 1.1001 1.1001 0 0 0 -0.7812 0.6562l-4.5 10.094a1.1001 1.1001 0 0 0 -0.5 0.9375v0.375l2.0938 0.4375 4.9062-10.938a1.1001 1.1001 0 0 0 -1.0625 -1.5937zm8.6563 1.9062a1.1001 1.1001 0 0 0 -0.9063 0.6562l-4.5 10.094a1.1001 1.1001 0 0 0 -0.5 0.9375v0.375l2.0937 0.4687 4.9063-10.969a1.1001 1.1001 0 0 0 -1.0937 -1.5625z" style="block-progression:tb;color:#000000;text-transform:none;text-indent:0" fill="#868382"/>
        <path id="path4877" d="m1688.3 1176.3c0 10.033-3.8273 18.166-8.5486 18.166-4.7212 0-8.5486-8.1331-8.5486-18.166s3.8274-18.166 8.5486-18.166c4.7213 0 8.5486 8.1331 8.5486 18.166z" fill="#868382" transform="matrix(.99882 .048472 -.048472 .99882 42.965 301.36)"/>
        <path id="path4879" filter="url(#filter4573)" d="m1664.6 1539.2c-4.7158-0.2289-8.92 7.6979-9.4063 17.719-0.2192 4.5173 0.3688 8.6992 1.5 11.937-0.6235-2.7426-0.9137-5.9076-0.75-9.2812 0.4863-10.021 4.7218-17.948 9.4375-17.719 2.5899 0.1257 4.7781 2.6799 6.1562 6.625-1.2284-5.4038-3.8093-9.1294-6.9374-9.2812z" fill="#fff"/>
        <path id="path4881" opacity=".60535" d="m1712.2 1083.5c0 7.4072-3.2984 13.412-7.3671 13.412s-7.367-6.0046-7.367-13.412c0-7.4071 3.2983-13.412 7.367-13.412s7.3671 6.0047 7.3671 13.412z" transform="matrix(.87026 .062561 -.054551 .99804 240.44 370.84)" filter="url(#filter4623)" fill="#333"/>
        <path id="path4883" opacity=".85619" filter="url(#filter4753)" d="m1218.4 1585.8 30.989-18.166-49.488-7.5526z" fill="#fff"/>
        <path id="path4885" opacity=".66221" filter="url(#filter4763)" d="m1523.8 1642.7-0.6941-2.9148 2.4557-0.7556-426.91-67.626-1.5112 2.0779 0.3778 2.4557z" fill="#fff"/>
        <path id="path4887" opacity=".78261" filter="url(#filter4793)" d="m1250.5 1484.7-6.8003 6.0447v8.3116l396.69 42.313z" fill="url(#linearGradient3796)"/>
        <path id="path4889" opacity=".93645" filter="url(#filter4811)" d="m1302.6 1221-3.778 5.2891 401.22 24.179 2.2668-4.5336z" fill="url(#linearGradient3798)"/>
      </g>
    </g>
  </g>
  <metadata>
    <rdf:RDF>
      <cc:Work>
        <dc:format>image/svg+xml</dc:format>
        <dc:type rdf:resource="http://purl.org/dc/dcmitype/StillImage"/>
        <cc:license rdf:resource="http://creativecommons.org/licenses/publicdomain/"/>
        <dc:publisher>
          <cc:Agent rdf:about="http://openclipart.org/">
            <dc:title>Openclipart</dc:title>
          </cc:Agent>
        </dc:publisher>
        <dc:title>Netbook</dc:title>
        <dc:date>2011-03-27T14:01:39</dc:date>
        <dc:description>clip art, clipart, computer, laptop, mobile, netbook, realistic, </dc:description>
        <dc:source>http://openclipart.org/detail/129421/netbook-by-gnokii</dc:source>
        <dc:creator>
          <cc:Agent>
            <dc:title>gnokii</dc:title>
          </cc:Agent>
        </dc:creator>
        <dc:subject>
          <rdf:Bag>
            <rdf:li>clip art</rdf:li>
            <rdf:li>clipart</rdf:li>
            <rdf:li>computer</rdf:li>
            <rdf:li>laptop</rdf:li>
            <rdf:li>mobile</rdf:li>
            <rdf:li>netbook</rdf:li>
            <rdf:li>realistic</rdf:li>
          </rdf:Bag>
        </dc:subject>
      </cc:Work>
      <cc:License rdf:about="http://creativecommons.org/licenses/publicdomain/">
        <cc:permits rdf:resource="http://creativecommons.org/ns#Reproduction"/>
        <cc:permits rdf:resource="http://creativecommons.org/ns#Distribution"/>
        <cc:permits rdf:resource="http://creativecommons.org/ns#DerivativeWorks"/>
      </cc:License>
    </rdf:RDF>
  </metadata>
</svg>
